<?xml version="1.0" standalone="no"?>
<!DOCTYPE svg PUBLIC "-//W3C//DTD SVG 20010904//EN"
 "http://www.w3.org/TR/2001/REC-SVG-20010904/DTD/svg10.dtd">
<svg version="1.0" xmlns="http://www.w3.org/2000/svg"
 width="480.000000pt" height="480.000000pt" viewBox="0 0 480.000000 480.000000"
 preserveAspectRatio="xMidYMid meet">

<g transform="translate(0.000000,480.000000) scale(0.100000,-0.100000)"
fill="#000000" stroke="none">
<path d="M0 3910 c0 -549 4 -890 9 -890 6 0 13 5 16 10 9 14 41 -5 61 -35 30
-45 -3 -105 -57 -105 l-29 0 0 -496 c0 -445 2 -494 15 -480 29 29 64 -9 50
-54 -7 -22 -35 -26 -53 -8 -9 9 -12 -195 -12 -920 l0 -932 2400 0 2400 0 0
2400 0 2400 -1314 0 c-1159 0 -1315 -2 -1320 -15 -3 -8 -15 -15 -26 -15 -11 0
-23 7 -26 15 -5 13 -132 15 -1060 15 l-1054 0 0 -890z m1634 864 c20 -19 20
-24 0 -52 -17 -25 -56 -29 -74 -7 -16 19 -5 62 18 68 32 8 40 7 56 -9z m3116
-199 c0 -29 -12 -32 -34 -9 -29 28 -17 61 15 43 11 -5 19 -21 19 -34z m-1470
-211 c0 -9 -5 -12 -12 -8 -7 5 -8 3 -3 -6 6 -10 4 -12 -8 -7 -14 5 -15 3 -5
-13 12 -19 13 -19 20 -1 3 10 11 22 17 25 15 10 26 -43 12 -57 -8 -8 -11 -8
-11 1 0 6 -6 9 -13 6 -7 -2 -22 4 -32 16 -14 15 -21 17 -32 9 -10 -9 -13 -7
-13 10 0 22 22 35 61 38 11 1 19 -5 19 -13z m-92 -231 c4 -5 15 -9 25 -7 9 1
15 -2 12 -6 -3 -5 -1 -11 5 -15 6 -4 8 -11 4 -16 -3 -5 -10 -7 -15 -3 -5 3 -6
10 -3 16 4 6 2 8 -4 4 -6 -3 -17 3 -25 14 -7 11 -17 17 -20 13 -4 -3 -1 -13 6
-21 9 -13 9 -14 0 -8 -19 11 -16 1 4 -15 14 -12 16 -12 9 0 -6 9 -5 12 4 9 24
-8 23 -28 -2 -37 -31 -12 -54 5 -36 27 9 11 10 14 1 9 -7 -5 -16 1 -23 15 -10
21 -10 22 3 5 9 -11 18 -14 21 -8 4 5 2 12 -4 16 -6 4 -8 10 -5 15 7 11 35 7
43 -7z m-1988 3 c0 -11 -19 -15 -25 -6 -3 5 1 10 9 10 9 0 16 -2 16 -4z m3020
-66 c0 -5 -5 -10 -11 -10 -5 0 -7 5 -4 10 3 6 8 10 11 10 2 0 4 -4 4 -10z
m-2952 -128 c12 -7 22 -20 23 -30 0 -9 3 -30 5 -47 11 -66 -23 -133 -82 -163
-34 -18 -89 0 -126 39 -40 41 -13 164 44 199 33 20 101 21 136 2z m2072 -102
c14 -26 15 -115 2 -165 -8 -33 -10 -35 -11 -13 0 15 -6 30 -11 33 -6 4 -9 30
-8 58 l3 51 -75 1 c-41 0 -116 -3 -167 -8 -50 -4 -116 -4 -146 1 -31 5 -64 5
-78 -1 -13 -5 -69 -8 -124 -7 -509 5 -494 6 -498 -10 -2 -8 0 -28 5 -45 4 -16
7 -88 6 -160 -4 -298 -3 -304 50 -305 17 0 22 -6 22 -26 0 -19 -4 -24 -17 -20
-10 2 -32 7 -50 11 -37 7 -41 15 -49 103 -3 37 -10 79 -15 93 -8 19 -6 37 7
68 14 35 15 56 8 114 -5 40 -8 101 -7 136 2 77 17 98 60 84 17 -6 65 -6 123
-1 59 5 135 4 202 -3 77 -7 112 -7 127 0 11 6 44 11 73 11 29 0 76 1 103 1 28
0 66 0 85 -2 53 -4 341 9 348 15 10 11 21 6 32 -14z m-2260 -331 c0 -5 -7 -9
-15 -9 -15 0 -20 12 -9 23 8 8 24 -1 24 -14z m2195 -94 c0 -10 -6 -20 -12 -22
-8 -3 -13 5 -13 22 0 17 5 25 13 23 6 -3 12 -13 12 -23z m-2211 -11 c24 -9 19
-41 -9 -60 -20 -13 -28 -14 -40 -4 -39 33 -1 83 49 64z m2896 -24 c0 -11 -4
-20 -10 -20 -5 0 -10 9 -10 20 0 11 5 20 10 20 6 0 10 -9 10 -20z m-1236 -303
c-3 -45 -8 -97 -11 -114 -3 -18 0 -62 7 -96 16 -88 2 -145 -38 -147 -49 -3
-186 -2 -272 3 -47 2 -125 0 -175 -5 -110 -12 -111 -12 -158 -3 -35 7 -41 5
-68 -24 -16 -18 -38 -49 -48 -69 -10 -21 -28 -46 -40 -56 -12 -11 -40 -46 -63
-79 -24 -32 -58 -78 -76 -101 -17 -22 -47 -61 -65 -85 -17 -24 -47 -58 -64
-74 -18 -17 -33 -34 -33 -38 0 -4 17 -11 38 -16 45 -11 49 -35 7 -39 -97 -10
-90 -13 -93 30 -2 28 3 48 22 77 15 21 30 39 34 39 4 0 21 22 37 50 17 27 33
50 37 50 14 0 56 46 73 80 9 19 26 44 36 55 33 35 79 97 126 172 25 40 50 73
55 73 6 0 8 6 5 14 -3 7 0 19 6 25 9 9 8 11 -4 6 -10 -4 -19 0 -23 10 -4 11
-2 14 7 9 9 -5 9 -4 0 6 -9 10 -10 17 -2 27 7 7 8 13 4 13 -4 0 -1 8 6 17 12
15 12 16 -1 8 -13 -8 -13 -7 -1 8 7 9 10 17 5 17 -4 0 5 14 21 30 22 23 38 30
67 30 35 0 38 -2 38 -29 0 -17 -6 -31 -16 -35 -9 -3 -14 -12 -11 -19 2 -6 -7
-23 -21 -37 l-24 -25 17 30 c10 17 11 23 3 13 -12 -14 -17 -15 -28 -5 -12 10
-12 9 -1 -5 7 -10 10 -18 6 -18 -4 0 -2 -6 4 -14 9 -10 8 -15 -3 -19 -8 -3
-17 -1 -20 6 -3 7 -3 2 0 -10 4 -18 1 -23 -13 -24 -25 0 75 -49 102 -49 29 0
45 19 45 53 0 16 4 26 10 22 6 -3 10 -17 10 -30 0 -23 0 -23 118 -20 64 2 157
-1 206 -6 50 -5 110 -7 134 -3 l44 7 -3 101 c-1 55 0 108 3 116 4 8 11 54 18
102 7 49 16 86 20 83 5 -3 7 -42 4 -88z m436 -23 c0 -8 -4 -14 -10 -14 -5 0
-10 9 -10 21 0 11 5 17 10 14 6 -3 10 -13 10 -21z m-1320 -15 c0 -5 -4 -9 -10
-9 -5 0 -10 7 -10 16 0 8 5 12 10 9 6 -3 10 -10 10 -16z m1134 -131 c24 -39
-35 -76 -68 -43 -9 9 -16 20 -16 25 0 17 33 41 53 38 11 -2 25 -11 31 -20z
m-1397 -194 c9 -24 -14 -64 -37 -64 -25 0 -34 21 -26 55 5 18 13 25 32 25 13
0 27 -7 31 -16z m-1077 -103 c28 -53 -9 -151 -46 -120 -14 12 -21 119 -7 132
13 14 43 7 53 -12z m2333 -38 c7 -5 95 -8 196 -8 l184 0 14 -49 c9 -31 12 -65
8 -90 -4 -23 -8 -72 -10 -111 -3 -78 2 -74 -87 -61 -46 7 -65 5 -92 -8 -32
-15 -38 -15 -77 1 -35 14 -49 14 -86 5 -24 -7 -67 -12 -96 -12 -29 0 -67 -4
-84 -9 -23 -7 -49 -5 -90 6 -32 8 -71 15 -88 15 -167 1 -367 -5 -395 -11 -24
-5 -44 -3 -64 7 -16 8 -47 12 -72 10 -58 -4 -57 8 5 82 28 33 59 79 71 102 33
69 49 95 65 108 11 9 71 13 209 14 107 1 198 5 202 8 9 9 273 10 287 1z m-134
-565 c-2 -82 -22 -142 -62 -179 -14 -13 -35 -46 -47 -72 -13 -26 -31 -52 -42
-58 -10 -6 -23 -21 -28 -34 -8 -22 -94 -86 -159 -119 -40 -21 -150 -46 -206
-47 -120 -3 -182 3 -218 19 l-39 17 100 0 c55 0 104 -3 108 -7 13 -13 38 -9
136 22 86 27 104 38 177 101 44 38 81 76 81 84 0 7 13 26 29 41 16 15 28 35
26 45 -2 9 10 29 26 45 16 15 29 38 29 52 0 13 7 30 15 38 8 9 15 21 15 27 0
8 -3 8 -9 -1 -6 -10 -10 -9 -14 7 -3 12 -2 19 2 17 10 -7 24 5 50 42 12 17 24
32 27 32 2 0 4 -33 3 -72z m-146 12 c9 -11 23 -17 30 -14 8 3 17 -2 20 -10 4
-9 3 -15 -1 -15 -4 1 -10 0 -14 -1 -5 -1 -14 -3 -20 -4 -7 0 -13 -8 -13 -16 0
-17 -21 -20 -47 -8 -20 10 -23 40 -8 69 14 24 31 24 53 -1z m-1055 -32 c-2
-31 -8 -44 -20 -46 -11 -2 -18 3 -18 12 0 25 -119 22 -152 -3 -23 -18 -173
-61 -214 -61 -27 0 -185 -76 -176 -84 9 -9 50 -127 64 -186 6 -25 21 -58 33
-75 12 -16 25 -43 29 -59 4 -16 22 -43 40 -60 19 -17 45 -54 60 -83 14 -28 42
-64 61 -79 19 -14 35 -33 35 -40 0 -8 15 -20 34 -28 18 -7 43 -28 55 -45 14
-20 31 -31 46 -31 21 0 114 -64 130 -90 3 -5 20 -10 37 -10 17 0 57 -14 90
-30 33 -17 73 -32 89 -34 52 -6 44 -16 -9 -13 -28 2 -58 9 -66 16 -8 7 -44 15
-78 18 -74 7 -101 19 -147 67 -19 20 -43 36 -53 36 -11 0 -40 19 -66 43 -26
24 -65 54 -87 67 -22 13 -52 37 -66 54 -16 19 -37 31 -55 32 -16 1 -32 3 -35
3 -4 1 -12 15 -19 32 -10 24 -10 35 0 55 12 22 11 27 -12 52 -14 15 -28 39
-32 55 -3 15 -13 27 -21 27 -8 0 -17 10 -19 23 -2 12 -9 47 -14 77 -6 30 -17
73 -26 95 -8 22 -15 54 -16 71 0 17 -7 37 -15 44 -18 15 -20 50 -4 50 7 0 30
8 53 19 23 10 66 25 96 34 139 38 208 61 245 80 40 21 102 33 183 36 l43 1 -3
-42z m1410 -40 c7 -7 12 -17 12 -22 0 -13 -49 -38 -60 -31 -11 7 0 45 12 45 5
0 6 5 3 10 -9 14 19 12 33 -2z m-2258 -44 c0 -8 -4 -12 -10 -9 -5 3 -10 10
-10 16 0 5 5 9 10 9 6 0 10 -7 10 -16z m1930 -315 c0 -24 -23 -21 -28 4 -2 10
3 17 12 17 10 0 16 -9 16 -21z m1481 -182 c-10 -9 -11 -8 -5 6 3 10 9 15 12
12 3 -3 0 -11 -7 -18z m-1311 -233 c22 -26 1 -69 -34 -69 -35 0 -51 23 -42 58
5 21 12 27 35 27 16 0 34 -7 41 -16z m-520 -309 c0 -8 -7 -15 -15 -15 -8 0
-15 7 -15 15 0 8 7 15 15 15 8 0 15 -7 15 -15z m1606 -301 c1 -9 0 -13 -3 -10
-3 3 -11 -2 -18 -11 -11 -14 -12 -14 -19 3 -4 10 -4 15 0 11 11 -10 35 13 27
27 -3 6 -2 7 2 3 5 -4 10 -15 11 -23z m-2976 -77 c0 -50 -17 -70 -43 -49 -19
16 -10 110 11 114 24 5 32 -10 32 -65z m2876 58 c-1 -8 -5 -17 -8 -21 -5 -4
-4 16 1 34 3 9 9 -1 7 -13z m36 -29 c7 4 8 2 4 -5 -9 -13 -26 -5 -25 12 0 9 2
8 6 -1 2 -6 10 -9 15 -6z m-1636 -133 c17 -23 18 -135 2 -151 -7 -7 -21 -12
-33 -12 -35 0 -45 20 -45 92 0 53 4 69 18 77 25 15 43 13 58 -6z m1628 -78 c7
-20 -2 -42 -21 -49 -20 -8 -33 1 -33 23 0 35 42 55 54 26z"/>
<path d="M2566 1988 c3 -5 10 -6 15 -3 13 9 11 12 -6 12 -8 0 -12 -4 -9 -9z"/>
</g>
</svg>
